<?xml version="1.0" encoding="UTF-8"?>
<svg id="Layer_1" data-name="Layer 1" xmlns="http://www.w3.org/2000/svg" viewBox="0 0 73.64 73.8">
    <defs>
        <style>
            .cls-1 {
            fill: #fff;
            }
            .cls-4 {
            fill: #DB3232;
            }
        </style>
    </defs>
    <rect class="cls-4" width="73.64" height="73.8"/>
    <path class="cls-1"
          d="m65.49,14.01l-8.27,13.37c-.9,1.5-.77,2.68-.35,3.82l12.56,32.12H17.42c-4.67,0-8.28-3.74-8.28-8.21l-.05-42.77c.13-5.53,8.18-5.62,8.33-.02v40.09c-.01,1.27,1.1,2.71,2.57,2.67h38.09l-9.86-23.21c-.26-.89-.43-1.77-.43-2.66,0-.98.43-2.55,1.08-3.84l9.05-14.9c.67-1.34,2.02-2.24,3.62-2.31,2.26-.09,4.19,1.46,4.28,3.85.01.48-.1,1.53-.34,1.99"/>
    <path class="cls-1"
          d="m36.81,41.02V12.34c0-5.6,8.16-5.64,8.26,0v29c0,6.63-4.96,11.02-11.03,11.02s-11.04-4.49-11.04-11.02V12.34c0-5.6,8.26-5.6,8.26,0v28.68c0,3.85,5.56,4.08,5.56,0"/>
</svg>